<svg xmlns="http://www.w3.org/2000/svg" width="328" height="328" fill="none"><circle cx="164" cy="164" r="164" fill="#D9D9D9"/><path fill="#B0AFB8" d="m119.129 277.897 4.435-11.276a2.769 2.769 0 0 0-1.53-3.571c-33.082-14.031-57.55-44.288-63.463-80.871-.255-1.48-1.58-2.551-3.11-2.347l-12.03 1.582c-1.528.204-2.65 1.633-2.395 3.163 6.78 42.859 35.58 78.473 74.423 94.851 1.427.612 3.058-.102 3.67-1.582v.051Z"/><path fill="#B0AFB8" d="M73.915 123.809c-1.428-.663-3.11 0-3.722 1.378-5.25 12.245-8.155 25.664-8.155 39.797 0 34.696 17.484 65.36 44.092 83.677 1.275.868 3.059.51 3.875-.816l6.575-10.103c.816-1.275.51-2.908-.713-3.775-21.818-15.154-36.14-40.359-36.14-68.983 0-11.531 2.343-22.5 6.574-32.5.561-1.379-.05-2.96-1.376-3.572l-10.96-5.103h-.05Z"/><path fill="#B0AFB8" d="M110.82 201.619c1.224-.817 1.58-2.5.816-3.725-6.015-9.49-9.481-20.766-9.481-32.807 0-26.226 16.413-48.574 39.505-57.4 1.376-.51 2.039-2.042 1.631-3.42L139.57 92.89c-.51-1.53-2.141-2.296-3.67-1.735-29.922 11.225-51.23 40.155-51.23 73.932 0 15.612 4.588 30.205 12.438 42.501.867 1.327 2.6 1.735 3.925.817l9.838-6.735-.05-.051h-.001Z"/><path fill="#6D6E7D" d="M269.81 165.036c0 34.236-16.159 64.696-41.29 84.187a2.773 2.773 0 0 0-.56 3.877l7.187 9.695c.917 1.224 2.702 1.53 3.925.561 29.412-22.705 48.426-58.319 48.426-98.32 0-5.154-.306-10.205-.918-15.205-.204-1.531-1.631-2.602-3.16-2.398l-11.979 1.837c-1.478.204-2.498 1.632-2.345 3.112.51 4.133.765 8.368.765 12.654h-.051Z"/><path fill="#6D6E7D" d="m261.654 173.71-12.081-.97c-1.53-.102-2.804.97-3.008 2.5-4.435 36.634-32.522 66.023-68.51 72.35-1.478.255-2.548 1.633-2.293 3.163l1.733 11.991c.204 1.53 1.682 2.602 3.211 2.347 43.94-7.552 78.297-43.522 83.496-88.269.204-1.531-.968-2.959-2.548-3.061v-.051Z"/><path fill="#6D6E7D" d="m234.739 191.618-11.214-4.081c-1.376-.511-2.906.153-3.466 1.479-9.329 21.991-31.146 37.451-56.531 37.451-14.885 0-28.495-5.307-39.149-14.134-1.121-.918-2.803-.816-3.823.307l-8.054 8.826c-1.07 1.174-.917 3.011.306 4.031 13.712 11.531 31.4 18.521 50.669 18.521 32.776 0 60.965-20.102 72.842-48.675.148-.35.223-.727.22-1.108a2.789 2.789 0 0 0-.887-2.027 2.803 2.803 0 0 0-.964-.59h.051Z"/><path fill="#253143" d="m84.823 72.889 7.8 9.235c.968 1.174 2.7 1.276 3.873.357 18.3-14.898 41.595-23.827 66.981-23.827 13.916 0 27.169 2.653 39.301 7.551 1.427.561 3.008-.05 3.619-1.48l4.741-11.122c.612-1.43-.051-3.113-1.478-3.674C195.387 44.163 179.789 41 163.477 41c-29.718 0-56.99 10.51-78.348 28.011-1.173.97-1.325 2.756-.357 3.93l.051-.052Z"/><path fill="#253143" d="M163.477 63.501c-13.763 0-26.864 2.755-38.792 7.755-1.427.613-2.039 2.245-1.427 3.674l4.893 11.072c.612 1.378 2.243 1.99 3.62 1.428 9.787-4.03 20.491-6.224 31.706-6.224 27.169 0 51.28 12.96 66.572 32.96.918 1.225 2.6 1.48 3.874.613l9.788-7.041c1.274-.919 1.529-2.654.611-3.93-18.554-24.439-47.865-40.307-80.794-40.307h-.051Z"/><path fill="#253143" d="M163.477 86.053c-1.479 0-3.008 0-4.486.153-1.58.102-2.753 1.48-2.651 3.061l1.071 11.94c.153 1.48 1.427 2.602 2.905 2.5a60.167 60.167 0 0 1 3.11-.102c33.898 0 61.373 27.5 61.373 61.431 0 1.938-.102 3.826-.255 5.663-.153 1.48.918 2.806 2.396 3.01l11.877 1.48c1.58.204 2.957-.969 3.109-2.5.255-2.5.408-5.051.408-7.653 0-43.523-35.376-78.983-78.908-78.983h.051Z"/></svg>